<svg width="1200" height="630" xmlns="http://www.w3.org/2000/svg">
  <!-- 背景 -->
  <rect width="1200" height="630" fill="#1a1a2e"/>

  <!-- 裝飾線條 -->
  <line x1="0" y1="580" x2="1200" y2="580" stroke="#2E7D32" stroke-width="8"/>
  <line x1="0" y1="590" x2="1200" y2="590" stroke="#66BB6A" stroke-width="4"/>

  <!-- 左側裝飾圓點 (代表分子/節點) -->
  <circle cx="100" cy="200" r="40" fill="#2E7D32" opacity="0.3"/>
  <circle cx="180" cy="280" r="25" fill="#66BB6A" opacity="0.4"/>
  <circle cx="80" cy="350" r="30" fill="#2E7D32" opacity="0.2"/>
  <line x1="100" y1="200" x2="180" y2="280" stroke="#66BB6A" stroke-width="2" opacity="0.3"/>
  <line x1="180" y1="280" x2="80" y2="350" stroke="#2E7D32" stroke-width="2" opacity="0.3"/>

  <!-- 右側裝飾圓點 -->
  <circle cx="1100" cy="180" r="35" fill="#66BB6A" opacity="0.3"/>
  <circle cx="1050" cy="280" r="20" fill="#2E7D32" opacity="0.4"/>
  <circle cx="1120" cy="350" r="28" fill="#66BB6A" opacity="0.2"/>
  <line x1="1100" y1="180" x2="1050" y2="280" stroke="#2E7D32" stroke-width="2" opacity="0.3"/>
  <line x1="1050" y1="280" x2="1120" y2="350" stroke="#66BB6A" stroke-width="2" opacity="0.3"/>

  <!-- 主標題 -->
  <text x="600" y="220" font-family="Arial, sans-serif" font-size="72" font-weight="bold" fill="#ffffff" text-anchor="middle">TwTxGNN</text>

  <!-- 副標題 -->
  <text x="600" y="310" font-family="Arial, sans-serif" font-size="42" fill="#e0e0e0" text-anchor="middle">老藥新用驗證報告</text>

  <!-- 標語 -->
  <text x="600" y="400" font-family="Arial, sans-serif" font-size="28" fill="#9e9e9e" text-anchor="middle">從數據到證據 | AI 預測 + 臨床驗證</text>

  <!-- 統計數據 -->
  <text x="350" y="500" font-family="Arial, sans-serif" font-size="24" fill="#66BB6A" text-anchor="middle">191 藥物報告</text>
  <text x="600" y="500" font-family="Arial, sans-serif" font-size="24" fill="#66BB6A" text-anchor="middle">142,328 候選</text>
  <text x="850" y="500" font-family="Arial, sans-serif" font-size="24" fill="#66BB6A" text-anchor="middle">L1-L5 證據分級</text>

  <!-- 網址 -->
  <text x="600" y="550" font-family="Arial, sans-serif" font-size="20" fill="#757575" text-anchor="middle">twtxgnn.yao.care</text>
</svg>
